<svg width="54" height="41" viewBox="0 0 54 41" fill="none" xmlns="http://www.w3.org/2000/svg">
<path d="M51.1403 15.9547C50.1759 15.2006 49.7318 14.1727 49.9285 13.1304L50.1062 12.1794C50.6391 9.3311 48.1267 6.70855 44.3835 6.21382L43.1337 6.04571C41.7697 5.86319 40.6086 5.22916 39.9615 4.30214L39.3652 3.45678C37.5824 0.915884 33.5157 -0.0879859 30.1024 1.18006L28.9604 1.59794C27.7169 2.05905 26.2831 2.05905 25.0396 1.59794L23.904 1.17526C20.4907 -0.0879861 16.424 0.911081 14.6412 3.45198L14.0448 4.29734C13.3914 5.22436 12.2367 5.86319 10.8726 6.0409L9.62281 6.20902C5.87963 6.70375 3.36727 9.3263 3.90019 12.1746L4.07784 13.1256C4.27451 14.1679 3.83041 15.1958 2.86606 15.9499L1.9842 16.6368C-0.661399 18.7022 -0.661399 21.9443 1.9842 24.0097L2.86606 24.7014C3.83041 25.4555 4.27451 26.4834 4.07784 27.5256L3.90019 28.4767C3.36727 31.325 5.87963 33.9475 9.62281 34.4423L10.8726 34.6104C12.2367 34.7929 13.3977 35.4269 14.0448 36.3539L14.6412 37.1993C15.9037 38.9957 18.3019 40.0236 20.8143 40.0236C21.8484 40.0236 22.9079 39.8459 23.904 39.476L25.0396 39.0629C26.2831 38.6018 27.7169 38.6018 28.9604 39.0629L30.096 39.4856C33.5093 40.7489 37.576 39.7498 39.3588 37.2089L39.9552 36.3635C40.6086 35.4365 41.7633 34.7977 43.1274 34.62L44.3772 34.4519C48.1204 33.9571 50.6327 31.3346 50.0998 28.4863L49.9222 27.5353C49.7255 26.493 50.1696 25.4651 51.1339 24.711L52.0158 24.0241C54.6614 21.9587 54.6614 18.7166 52.0158 16.6512L51.1403 15.9547ZM50.195 22.684L49.3131 23.3709C47.8032 24.5525 47.1053 26.1711 47.4098 27.7994L47.5874 28.7505C47.93 30.5661 46.3249 32.2376 43.9394 32.5546L42.6896 32.7227C40.5452 33.0061 38.7307 34.0052 37.7156 35.4605L37.1192 36.3059C35.9836 37.9246 33.3888 38.5682 31.2127 37.7613L30.077 37.3386C28.1229 36.6133 25.877 36.6133 23.923 37.3386L22.7873 37.7613C20.6112 38.5682 18.0164 37.9294 16.8808 36.3059L16.2844 35.4605C15.2629 34.0052 13.4485 33.0061 11.3104 32.7227L10.0606 32.5546C7.67509 32.2376 6.06996 30.5661 6.41256 28.7505L6.5902 27.7994C6.89473 26.1663 6.2032 24.5525 4.68689 23.3709L3.80503 22.6792C2.11743 21.3583 2.11743 19.2978 3.80503 17.9769L4.68689 17.29C6.19685 16.1084 6.89473 14.4897 6.5902 12.8615L6.41256 11.9104C6.06996 10.0948 7.67509 8.42329 10.0606 8.10628L11.3104 7.93817C13.4548 7.65478 15.2693 6.65571 16.2844 5.20034L16.8808 4.35498C17.6865 3.20701 19.2155 2.55378 20.8143 2.55378C21.4741 2.55378 22.1466 2.66425 22.7873 2.89961L23.923 3.32229C25.877 4.04757 28.1229 4.04757 30.077 3.32229L31.2127 2.89961C33.3888 2.09267 35.9836 2.7315 37.1192 4.35498L37.7156 5.20034C38.7371 6.65571 40.5516 7.65478 42.6896 7.93817L43.9394 8.10628C46.3249 8.42329 47.93 10.0948 47.5874 11.9104L47.4098 12.8615C47.1053 14.4945 47.7968 16.1084 49.3131 17.29L50.195 17.9817C51.8826 19.2978 51.8826 21.3631 50.195 22.684Z" fill="#67B437"/>
<path d="M37.094 12.6886C36.5992 12.3139 35.7935 12.3139 35.2986 12.6886L16.9063 26.6131C16.4114 26.9877 16.4114 27.5977 16.9063 27.9724C17.1537 28.1597 17.4773 28.2558 17.8009 28.2558C18.1244 28.2558 18.448 28.1597 18.6954 27.9724L37.0877 14.0479C37.5889 13.6732 37.5889 13.0632 37.094 12.6886Z" fill="#67B437"/>
<path d="M21.8419 17.7895C23.225 17.7895 24.6017 17.3908 25.6549 16.5935C27.7549 15.0036 27.7549 12.4099 25.6549 10.8201C23.5549 9.23019 20.1289 9.23019 18.029 10.8201C17.0075 11.5886 16.4492 12.6164 16.4492 13.7068C16.4492 14.7971 17.0075 15.825 18.029 16.5935C19.0821 17.3908 20.4589 17.7895 21.8419 17.7895ZM19.8244 12.1794C20.3827 11.7567 21.1123 11.5453 21.8419 11.5453C22.5715 11.5453 23.3011 11.7567 23.8594 12.1794C24.9697 13.0199 24.9697 14.3936 23.8594 15.2342C22.7428 16.0748 20.9347 16.0748 19.8244 15.2342C19.2851 14.8259 18.987 14.2832 18.987 13.7068C18.987 13.1304 19.2851 12.5876 19.8244 12.1794Z" fill="#67B437"/>
<path d="M28.3445 24.0674C26.2445 25.6572 26.2445 28.251 28.3445 29.8408C29.3977 30.6382 30.7744 31.0368 32.1575 31.0368C33.5405 31.0368 34.9173 30.6382 35.9704 29.8408C36.9919 29.0675 37.5502 28.0444 37.5502 26.9541C37.5502 25.8638 36.9919 24.8359 35.9704 24.0674C33.8705 22.4727 30.4508 22.4727 28.3445 24.0674ZM34.175 28.4815C33.0647 29.3221 31.2502 29.3221 30.14 28.4815C29.0297 27.641 29.0297 26.2672 30.14 25.4267C30.6983 25.004 31.4279 24.7927 32.1575 24.7927C32.8871 24.7927 33.6167 25.004 34.175 25.4267C34.7143 25.8349 35.0124 26.3777 35.0124 26.9541C35.0124 27.5305 34.7143 28.0732 34.175 28.4815Z" fill="#67B437"/>
</svg>
