<svg width="54" height="30" viewBox="0 0 54 30" fill="none" xmlns="http://www.w3.org/2000/svg">
<path d="M53.129 22.3395H52.2581V16.9664C52.2569 16.2542 51.8894 15.5714 51.2363 15.0678C50.5832 14.5642 49.6978 14.2809 48.7742 14.2799V2.86229C48.773 2.15007 48.4055 1.46729 47.7525 0.963671C47.0994 0.460056 46.2139 0.176714 45.2903 0.175781H8.70968C7.78607 0.176714 6.90064 0.460056 6.24754 0.963671C5.59445 1.46729 5.22702 2.15007 5.22581 2.86229V14.2799C4.3022 14.2809 3.41676 14.5642 2.76367 15.0678C2.11058 15.5714 1.74315 16.2542 1.74194 16.9664V22.3395H0.870968C0.639973 22.3395 0.418439 22.4102 0.255101 22.5362C0.0917624 22.6621 0 22.833 0 23.0111V25.6976C0 25.8757 0.0917624 26.0465 0.255101 26.1725C0.418439 26.2985 0.639973 26.3692 0.870968 26.3692H1.74194V29.0557C1.74194 29.2339 1.8337 29.4047 1.99704 29.5306C2.16037 29.6566 2.38191 29.7274 2.6129 29.7274H5.22581C5.4271 29.7274 5.62221 29.6737 5.77785 29.5752C5.9335 29.4768 6.04005 29.3398 6.07935 29.1875L6.81097 26.3692H47.189L47.9206 29.1875C47.9599 29.3398 48.0665 29.4768 48.2221 29.5752C48.3778 29.6737 48.5729 29.7274 48.7742 29.7274H51.3871C51.6181 29.7274 51.8396 29.6566 52.003 29.5306C52.1663 29.4047 52.2581 29.2339 52.2581 29.0557V26.3692H53.129C53.36 26.3692 53.5816 26.2985 53.7449 26.1725C53.9082 26.0465 54 25.8757 54 25.6976V23.0111C54 22.833 53.9082 22.6621 53.7449 22.5362C53.5816 22.4102 53.36 22.3395 53.129 22.3395ZM6.96774 2.86229C6.96835 2.50618 7.15207 2.16479 7.47861 1.91298C7.80516 1.66117 8.24787 1.5195 8.70968 1.51903H45.2903C45.7521 1.5195 46.1948 1.66117 46.5214 1.91298C46.8479 2.16479 47.0317 2.50618 47.0323 2.86229V14.2799H45.2903V11.5934C45.2891 10.8812 44.9217 10.1984 44.2686 9.69482C43.6155 9.1912 42.7301 8.90786 41.8064 8.90693H31.3548C30.4312 8.90786 29.5458 9.1912 28.8927 9.69482C28.2396 10.1984 27.8722 10.8812 27.871 11.5934V14.2799H26.129V11.5934C26.1278 10.8812 25.7604 10.1984 25.1073 9.69482C24.4542 9.1912 23.5688 8.90786 22.6452 8.90693H12.1935C11.2699 8.90786 10.3845 9.1912 9.73142 9.69482C9.07833 10.1984 8.71089 10.8812 8.70968 11.5934V14.2799H6.96774V2.86229ZM43.5484 11.5934V14.2799H29.6129V11.5934C29.6135 11.2373 29.7972 10.8959 30.1238 10.6441C30.4503 10.3923 30.893 10.2506 31.3548 10.2502H41.8064C42.2683 10.2506 42.711 10.3923 43.0375 10.6441C43.3641 10.8959 43.5478 11.2373 43.5484 11.5934ZM24.3871 11.5934V14.2799H10.4516V11.5934C10.4522 11.2373 10.6359 10.8959 10.9625 10.6441C11.289 10.3923 11.7317 10.2506 12.1935 10.2502H22.6452C23.107 10.2506 23.5497 10.3923 23.8762 10.6441C24.2028 10.8959 24.3865 11.2373 24.3871 11.5934ZM3.48387 16.9664C3.48448 16.6103 3.6682 16.2689 3.99474 16.0171C4.32129 15.7653 4.764 15.6237 5.22581 15.6232H48.7742C49.236 15.6237 49.6787 15.7653 50.0053 16.0171C50.3318 16.2689 50.5155 16.6103 50.5161 16.9664V22.3395H3.48387V16.9664ZM4.51161 28.3841H3.48387V26.3692H5.03419L4.51161 28.3841ZM50.5161 28.3841H49.4884L48.9658 26.3692H50.5161V28.3841ZM52.2581 25.026H1.74194V23.6827H52.2581V25.026Z" fill="#67B437"/>
</svg>
